<mxfile host="app.diagrams.net" agent="Mozilla/5.0 (Macintosh; Intel Mac OS X 10_15_7) AppleWebKit/537.36 (KHTML, like Gecko) Chrome/126.0.0.0 Safari/537.36" version="24.7.6">
  <diagram name="第 1 页" id="gk-a8ozAYQ8aDHjSY6zF">
    <mxGraphModel dx="1242" dy="741" grid="1" gridSize="10" guides="1" tooltips="1" connect="1" arrows="1" fold="1" page="1" pageScale="1" pageWidth="827" pageHeight="1169" math="0" shadow="0">
      <root>
        <mxCell id="0" />
        <mxCell id="1" parent="0" />
        <mxCell id="0lUQV-x0pWAgKE46buFP-1" value="&lt;font style=&quot;font-size: 18px;&quot;&gt;源站&lt;/font&gt;" style="rounded=0;whiteSpace=wrap;html=1;" vertex="1" parent="1">
          <mxGeometry x="294" y="300" width="306" height="60" as="geometry" />
        </mxCell>
        <mxCell id="0lUQV-x0pWAgKE46buFP-2" value="FLV-&amp;gt;P2P" style="rounded=0;whiteSpace=wrap;html=1;" vertex="1" parent="1">
          <mxGeometry x="500" y="310" width="100" height="50" as="geometry" />
        </mxCell>
        <mxCell id="0lUQV-x0pWAgKE46buFP-3" value="&lt;font style=&quot;font-size: 18px;&quot;&gt;CDN&lt;/font&gt;" style="rounded=0;whiteSpace=wrap;html=1;" vertex="1" parent="1">
          <mxGeometry x="290" y="450" width="310" height="60" as="geometry" />
        </mxCell>
        <mxCell id="0lUQV-x0pWAgKE46buFP-7" value="" style="endArrow=classic;html=1;rounded=0;exitX=0.225;exitY=1.017;exitDx=0;exitDy=0;exitPerimeter=0;entryX=0.232;entryY=-0.067;entryDx=0;entryDy=0;entryPerimeter=0;" edge="1" parent="1" source="0lUQV-x0pWAgKE46buFP-1" target="0lUQV-x0pWAgKE46buFP-3">
          <mxGeometry relative="1" as="geometry">
            <mxPoint x="368" y="360" as="sourcePoint" />
            <mxPoint x="363" y="440" as="targetPoint" />
          </mxGeometry>
        </mxCell>
        <mxCell id="0lUQV-x0pWAgKE46buFP-8" value="FLV" style="edgeLabel;resizable=0;html=1;;align=center;verticalAlign=middle;" connectable="0" vertex="1" parent="0lUQV-x0pWAgKE46buFP-7">
          <mxGeometry relative="1" as="geometry" />
        </mxCell>
        <mxCell id="0lUQV-x0pWAgKE46buFP-9" value="" style="endArrow=classic;html=1;rounded=0;exitX=0.225;exitY=1.017;exitDx=0;exitDy=0;exitPerimeter=0;entryX=0.232;entryY=-0.067;entryDx=0;entryDy=0;entryPerimeter=0;" edge="1" parent="1">
          <mxGeometry relative="1" as="geometry">
            <mxPoint x="501" y="365" as="sourcePoint" />
            <mxPoint x="500" y="450" as="targetPoint" />
          </mxGeometry>
        </mxCell>
        <mxCell id="0lUQV-x0pWAgKE46buFP-10" value="P2P" style="edgeLabel;resizable=0;html=1;;align=center;verticalAlign=middle;" connectable="0" vertex="1" parent="0lUQV-x0pWAgKE46buFP-9">
          <mxGeometry relative="1" as="geometry" />
        </mxCell>
        <mxCell id="0lUQV-x0pWAgKE46buFP-11" value="" style="endArrow=classic;html=1;rounded=0;exitX=0.471;exitY=1.067;exitDx=0;exitDy=0;exitPerimeter=0;" edge="1" parent="1" source="0lUQV-x0pWAgKE46buFP-3">
          <mxGeometry relative="1" as="geometry">
            <mxPoint x="420" y="540" as="sourcePoint" />
            <mxPoint x="436" y="570" as="targetPoint" />
          </mxGeometry>
        </mxCell>
        <mxCell id="0lUQV-x0pWAgKE46buFP-12" value="FLV/P2P" style="edgeLabel;resizable=0;html=1;;align=center;verticalAlign=middle;" connectable="0" vertex="1" parent="0lUQV-x0pWAgKE46buFP-11">
          <mxGeometry relative="1" as="geometry" />
        </mxCell>
        <mxCell id="0lUQV-x0pWAgKE46buFP-13" value="" style="shape=actor;whiteSpace=wrap;html=1;" vertex="1" parent="1">
          <mxGeometry x="414" y="580" width="40" height="60" as="geometry" />
        </mxCell>
      </root>
    </mxGraphModel>
  </diagram>
</mxfile>
